<?xml version="1.0" encoding="UTF-8"?>
<svg width="72px" height="48px" viewBox="0 0 72 48" version="1.1" xmlns="http://www.w3.org/2000/svg" xmlns:xlink="http://www.w3.org/1999/xlink">
    <!-- Generator: Sketch 59 (86127) - https://sketch.com -->
    <title>image_screen_n</title>
    <desc>Created with Sketch.</desc>
    <g id="页面-1" stroke="none" stroke-width="1" fill="none" fill-rule="evenodd" opacity="0.603143601">
        <g id="iTV-切图" transform="translate(-524.000000, -821.000000)">
            <g id="无限投屏-2" transform="translate(524.000000, 821.000000)">
                <g id="置灰-无限投屏">
                    <g id="分组-4">
                        <circle id="椭圆形" fill="#DCDDE0" cx="47.6625394" cy="19.8825899" r="18.67698"></circle>
                        <path d="M8.92219636,6.81482751 L42.0727884,6.81482751 C44.2819274,6.81482751 46.0727884,8.60568851 46.0727884,10.8148275 L46.0727884,34.5595699 C46.0727884,36.7687089 44.2819274,38.5595699 42.0727884,38.5595699 L8.92219636,38.5595699 C6.71305736,38.5595699 4.92219636,36.7687089 4.92219636,34.5595699 L4.92219636,10.8148275 C4.92219636,8.60568851 6.71305736,6.81482751 8.92219636,6.81482751 Z" id="矩形" fill="#9EA0A3"></path>
                        <g id="分组-2" transform="translate(11.741437, 13.776136)" fill="#FFFFFF">
                            <path d="M24.3608464,9.21707739 C21.9626649,5.69117789 17.9775983,3.5857584 13.7000448,3.5857584 C9.42301646,3.5857584 5.43794978,5.69117789 3.04029338,9.21707739 C2.73572905,9.66466161 2.23897413,9.90627485 1.73329233,9.90627485 C1.43030334,9.90627485 1.12363857,9.81959461 0.852681339,9.63805696 C0.132229174,9.15395654 -0.0573358636,8.18106076 0.429441948,7.46482167 C3.41364723,3.07609664 8.37489509,0.455798791 13.7000448,0.455798791 C19.0251945,0.455798791 23.9864424,3.07609664 26.9711728,7.46482167 C27.4579506,8.18106076 27.2689106,9.15395654 26.5479334,9.6375353 C25.826431,10.122679 24.8470991,9.93227316 24.3608464,9.21707739 Z" id="Path"></path>
                            <path d="M19.4916275,12.6901482 C18.2339869,10.8413854 16.1445706,9.73755302 13.9018219,9.73755302 C11.6595983,9.73755302 9.57018201,10.8413854 8.31359161,12.6896266 C8.00902728,13.1372108 7.51174725,13.3787497 7.00606545,13.3787497 C6.70307646,13.3787497 6.39641169,13.2921438 6.12650468,13.1111278 C5.4055274,12.6270274 5.21543725,11.6546533 5.70221507,10.9384142 C7.54587946,8.22630419 10.6114769,6.60759341 13.9018219,6.60759341 C17.1926919,6.60759341 20.2577643,8.22630419 22.1014287,10.9378925 C22.5887316,11.6541316 22.3996917,12.6270274 21.6787144,13.1106062 C20.957212,13.5947066 19.9778802,13.4048224 19.4916275,12.6901482 Z" id="Path"></path>
                            <path d="M11.0638239,16.2749406 C11.0638239,14.8189974 12.2441228,13.6382158 13.700066,13.6382158 C15.156492,13.6382158 16.3367908,14.8189974 16.3367908,16.2749406 C16.3367908,17.7308838 15.156492,18.9111826 13.700066,18.9111826 C12.2441228,18.9111826 11.0638239,17.7308838 11.0638239,16.2749406 Z" id="Path"></path>
                        </g>
                        <g id="分组-3" transform="translate(7.015606, 36.202498)" fill="#9EA0A3">
                            <polygon id="矩形" points="6.13669042 0.403066834 10.6632555 0.403066834 5.03405849 10.5878384 0.507493375 10.5878384"></polygon>
                            <polygon id="矩形-copy-4" transform="translate(31.527631, 5.495453) scale(-1, 1) rotate(-180.000000) translate(-31.527631, -5.495453) " points="32.0789467 0.403066834 36.6055118 0.403066834 30.9763148 10.5878384 26.4497497 10.5878384"></polygon>
                        </g>
                        <rect id="矩形-copy-19" fill="#C8C9CC" x="56.9336698" y="29.1537203" width="9.4058496" height="9.4058496" rx="2"></rect>
                    </g>
                </g>
            </g>
        </g>
    </g>
</svg>