<?xml version="1.0" encoding="UTF-8"?>
<svg width="72px" height="48px" viewBox="0 0 72 48" version="1.1" xmlns="http://www.w3.org/2000/svg" xmlns:xlink="http://www.w3.org/1999/xlink">
    <!-- Generator: Sketch 59 (86127) - https://sketch.com -->
    <title>image_add_n</title>
    <desc>Created with Sketch.</desc>
    <g id="页面-1" stroke="none" stroke-width="1" fill="none" fill-rule="evenodd" opacity="0.60249256">
        <g id="iTV-切图" transform="translate(-286.000000, -821.000000)">
            <g id="加入视频会议-2" transform="translate(286.000000, 821.000000)">
                <g id="置灰-加入视频会议">
                    <g id="分组-7">
                        <path d="M33.826788,24.4348852 C44.5408718,24.4348852 53.2263528,33.1203662 53.2263528,43.83445 L53.2263528,43.83445 L14.4272232,43.83445 C14.4272232,33.1203662 23.1127042,24.4348852 33.826788,24.4348852 Z" id="合并形状-copy-3" fill="#DCDDE0"></path>
                        <path d="M21.9787164,24.4348852 C32.6928002,24.4348852 41.3782812,33.1203662 41.3782812,43.83445 L41.3782812,43.83445 L2.57915161,43.83445 C2.57915161,33.1203662 11.2646326,24.4348852 21.9787164,24.4348852 Z" id="合并形状-copy-5" fill="#9EA0A3"></path>
                        <circle id="椭圆形-copy-3" fill="#DCDDE0" cx="33.826788" cy="13.0286277" r="9.4058496"></circle>
                        <circle id="椭圆形-copy-4" fill="#9EA0A3" cx="21.9787164" cy="13.0286277" r="9.4058496"></circle>
                        <rect id="矩形-copy-13" fill="#C8C9CC" x="48.436564" y="23.01421" width="20.82024" height="20.82024" rx="2"></rect>
                        <polygon id="三角形-copy-3" fill="#FFFFFF" transform="translate(59.459044, 33.424330) rotate(-270.000000) translate(-59.459044, -33.424330) " points="59.459044 28.5953563 65.0437672 38.2533037 53.8743208 38.2533037"></polygon>
                    </g>
                </g>
            </g>
        </g>
    </g>
</svg>