<?xml version="1.0" encoding="UTF-8"?>
<svg width="72px" height="48px" viewBox="0 0 72 48" version="1.1" xmlns="http://www.w3.org/2000/svg" xmlns:xlink="http://www.w3.org/1999/xlink">
    <!-- Generator: Sketch 59 (86127) - https://sketch.com -->
    <title>image_add_hl</title>
    <desc>Created with Sketch.</desc>
    <defs>
        <linearGradient x1="50%" y1="0%" x2="50%" y2="100%" id="linearGradient-1">
            <stop stop-color="#BFC6FF" offset="0%"></stop>
            <stop stop-color="#9299FF" offset="100%"></stop>
        </linearGradient>
    </defs>
    <g id="页面-1" stroke="none" stroke-width="1" fill="none" fill-rule="evenodd" opacity="0.876395089">
        <g id="iTV-切图" transform="translate(-382.000000, -821.000000)">
            <g id="加入视频会议-3" transform="translate(382.000000, 821.000000)">
                <g id="加入视频会议">
                    <g id="分组-7">
                        <g>
                            <path d="M33.826788,24.4348852 C44.4268922,24.4348852 53.0413257,32.9365517 53.2234119,43.4932079 L53.2263528,43.83445 L14.4272232,43.83445 C14.4272232,33.1203662 23.1127042,24.4348852 33.826788,24.4348852 Z M33.826788,3.62277812 C39.0214953,3.62277812 43.2326376,7.83392042 43.2326376,13.0286277 C43.2326376,18.223335 39.0214953,22.4344773 33.826788,22.4344773 C28.6320807,22.4344773 24.4209384,18.223335 24.4209384,13.0286277 C24.4209384,7.83392042 28.6320807,3.62277812 33.826788,3.62277812 Z" id="形状结合" fill="#D9DBFF"></path>
                            <path d="M21.9787164,24.4348852 C32.5788206,24.4348852 41.1932542,32.9365517 41.3753403,43.4932079 L41.3782812,43.83445 L2.57915161,43.83445 C2.57915161,33.1203662 11.2646326,24.4348852 21.9787164,24.4348852 Z M21.9787164,3.62277812 C27.1734237,3.62277812 31.384566,7.83392042 31.384566,13.0286277 C31.384566,18.223335 27.1734237,22.4344773 21.9787164,22.4344773 C16.7840091,22.4344773 12.5728668,18.223335 12.5728668,13.0286277 C12.5728668,7.83392042 16.7840091,3.62277812 21.9787164,3.62277812 Z" id="形状结合" fill="url(#linearGradient-1)" opacity="0.900206"></path>
                            <rect id="矩形-copy-13" fill="#9EA8FC" x="48.436564" y="23.01421" width="20.82024" height="20.82024" rx="2"></rect>
                            <polygon id="三角形-copy-3" fill="#FFFFFF" transform="translate(59.459044, 33.424330) rotate(-270.000000) translate(-59.459044, -33.424330) " points="59.459044 28.5953563 65.0437672 38.2533037 53.8743208 38.2533037"></polygon>
                        </g>
                    </g>
                </g>
            </g>
        </g>
    </g>
</svg>