<?xml version="1.0" encoding="UTF-8"?>
<svg width="72px" height="48px" viewBox="0 0 72 48" version="1.1" xmlns="http://www.w3.org/2000/svg" xmlns:xlink="http://www.w3.org/1999/xlink">
    <!-- Generator: Sketch 59 (86127) - https://sketch.com -->
    <title>image_launch_hl</title>
    <desc>Created with Sketch.</desc>
    <defs>
        <linearGradient x1="50%" y1="0%" x2="50%" y2="100%" id="linearGradient-1">
            <stop stop-color="#9DBDFD" offset="0%"></stop>
            <stop stop-color="#7EAAFF" offset="100%"></stop>
        </linearGradient>
    </defs>
    <g id="页面-1" stroke="none" stroke-width="1" fill="none" fill-rule="evenodd" opacity="0.880719866">
        <g id="iTV-切图" transform="translate(-144.000000, -821.000000)">
            <g id="发起视频会议-3" transform="translate(144.000000, 821.000000)">
                <g id="发起视频会议">
                    <g id="分组-6">
                        <g>
                            <path d="M15.741195,27.6026034 C23.0895719,27.6026034 29.0466084,33.5596399 29.0466084,40.9080169 L29.0466084,40.9080169 L2.43578157,40.9080169 C2.43578157,33.5596399 8.39281806,27.6026034 15.741195,27.6026034 Z" id="合并形状-copy-2" fill="#CEDFFF"></path>
                            <path d="M58.3138238,13.365923 L68.900252,34.5387795 C69.3942305,35.5267364 68.9937818,36.7280825 68.0058248,37.222061 C67.7281139,37.3609165 67.4218878,37.4332066 67.1113976,37.4332066 L49.5162499,37.4332066 C48.4116804,37.4332066 47.5162499,36.5377761 47.5162499,35.4332066 C47.5162499,35.1227165 47.5885401,34.8164903 47.7273955,34.5387795 L58.3138238,13.365923 L58.3138238,13.365923 Z" id="三角形-copy-2" fill="#9ABCFD" opacity="0.799479167" transform="translate(58.313824, 25.399565) rotate(-90.000000) translate(-58.313824, -25.399565) "></path>
                            <path d="M23.5493829,10.2900169 L54.7404229,10.2900169 C56.9495619,10.2900169 58.7404229,12.0808779 58.7404229,14.2900169 L58.7404229,36.9080169 C58.7404229,39.1171559 56.9495619,40.9080169 54.7404229,40.9080169 L23.5493829,40.9080169 C21.3402439,40.9080169 19.5493829,39.1171559 19.5493829,36.9080169 L19.5493829,14.2900169 C19.5493829,12.0808779 21.3402439,10.2900169 23.5493829,10.2900169 Z" id="矩形-copy-9" fill="url(#linearGradient-1)" opacity="0.897205171"></path>
                            <path d="M40.6229502,20.6165552 L46.3831544,30.5779708 C46.6596199,31.0560767 46.496158,31.6677777 46.0180521,31.9442432 C45.8658939,32.032229 45.6932329,32.0785559 45.5174671,32.0785559 L33.9970587,32.0785559 C33.444774,32.0785559 32.9970587,31.6308406 32.9970587,31.0785559 C32.9970587,30.9027901 33.0433856,30.7301291 33.1313714,30.5779708 L38.8915755,20.6165552 C39.168041,20.1384493 39.779742,19.9749874 40.257848,20.2514529 C40.4094111,20.3390946 40.5353086,20.4649921 40.6229502,20.6165552 Z" id="三角形-copy-3" fill="#FFFFFF" transform="translate(39.757263, 25.599017) rotate(-270.000000) translate(-39.757263, -25.599017) "></path>
                            <rect id="矩形-copy-19" fill="#BDD2FE" x="7.90726803" y="6.00349685" width="8.57304" height="8.57304" rx="2"></rect>
                        </g>
                    </g>
                </g>
            </g>
        </g>
    </g>
</svg>